<svg xmlns="http://www.w3.org/2000/svg" viewBox="0 0 94 72" width="94" height="72">
	<style>
		tspan { white-space:pre }
		.shp0 { fill: #ffffff;stroke: #ed546e;stroke-width: 2 } 
		.shp1 { fill: none;stroke: #ed546e;stroke-width: 2 } 
		.shp2 { fill: #ed546e } 
	</style>
	<g id="icon-section-services">
		<g id="Group-8">
			<g id="Group-5-Copy">
				<path id="Rectangle" class="shp0" d="M5 11L37 11C39.21 11 41 12.79 41 15L41 67C41 69.21 39.21 71 37 71L5 71C2.79 71 1 69.21 1 67L1 15C1 12.79 2.79 11 5 11Z" />
				<path id="Oval" class="shp1" d="M21 41C16.02 41 12 36.98 12 32C12 27.02 16.02 23 21 23C25.98 23 30 27.02 30 32C30 36.98 25.98 41 21 41Z" />
				<path id="Rectangle" class="shp2" d="M7 51L35 51L35 54L7 54L7 51Z" />
				<path id="Rectangle" class="shp2" d="M12 58L30 58L30 61L12 61L12 58Z" />
			</g>
			<g id="Group-5-Copy">
				<path id="Rectangle" class="shp0" d="M57 11L89 11C91.21 11 93 12.79 93 15L93 67C93 69.21 91.21 71 89 71L57 71C54.79 71 53 69.21 53 67L53 15C53 12.79 54.79 11 57 11Z" />
				<path id="Oval" class="shp1" d="M73 41C68.02 41 64 36.98 64 32C64 27.02 68.02 23 73 23C77.98 23 82 27.02 82 32C82 36.98 77.98 41 73 41Z" />
				<path id="Rectangle" class="shp2" d="M59 51L87 51L87 54L59 54L59 51Z" />
				<path id="Rectangle" class="shp2" d="M64 58L82 58L82 61L64 61L64 58Z" />
			</g>
			<g id="Group-7-Copy-10">
				<g id="Group-5">
					<path id="Rectangle" class="shp0" d="M31 1L63 1C65.21 1 67 2.79 67 5L67 57C67 59.21 65.21 61 63 61L31 61C28.79 61 27 59.21 27 57L27 5C27 2.79 28.79 1 31 1Z" />
					<path id="Oval" class="shp1" d="M47 31C42.02 31 38 26.98 38 22C38 17.02 42.02 13 47 13C51.98 13 56 17.02 56 22C56 26.98 51.98 31 47 31Z" />
					<path id="Rectangle" class="shp2" d="M33 41L61 41L61 44L33 44L33 41Z" />
					<path id="Rectangle" class="shp2" d="M38 48L56 48L56 51L38 51L38 48Z" />
				</g>
			</g>
		</g>
	</g>
</svg>