<svg xmlns="http://www.w3.org/2000/svg" width="184" height="191.357" viewBox="0 0 184 191.357"><defs><style>.a{fill:none;}.a,.b{stroke:#8f959d;stroke-miterlimit:10;stroke-width:6px;}.b{fill:#fff;}</style></defs><g transform="translate(3 -1.064)"><path class="a" d="M58.948-15.022l-34.874,56.7L51.017,95.333-14.154,97.5-28.6,11.46Z" transform="translate(66.778 39.422)"/><path class="b" d="M20,0H158a20,20,0,0,1,20,20v0a0,0,0,0,1,0,0H0a0,0,0,0,1,0,0v0A20,20,0,0,1,20,0Z" transform="translate(0 169.422)"/><rect class="b" width="74" height="14" transform="translate(36 122.422)"/><path class="b" d="M102,51A51,51,0,0,0,0,51C69.388,51.077,37.5,51.514,102,51Z" transform="translate(59 118.422)"/><circle class="b" cx="7" cy="7" r="7" transform="translate(103 128.422)"/><g transform="translate(111.211 0.163) rotate(30)"><rect class="b" width="20" height="48" transform="translate(10 32)"/><rect class="b" width="14" height="20" transform="translate(13 12)"/><rect class="b" width="40" height="12" transform="translate(0 80)"/><rect class="b" width="20" height="12" transform="translate(10)"/></g></g></svg>