<svg xmlns="http://www.w3.org/2000/svg" width="200" height="191" viewBox="0 0 200 191"><defs><style>.a,.e{fill:none;}.a,.b{stroke:#8f959d;stroke-miterlimit:10;stroke-width:6px;}.b{fill:#fff;}.c{fill:#8f959d;}.d{stroke:none;}</style></defs><rect class="a" width="187" height="185" transform="translate(7 3)"/><rect class="a" width="187" height="119" transform="translate(7 69)"/><rect class="a" width="116" height="42" transform="translate(78 146)"/><rect class="a" width="71" height="119" transform="translate(7 69)"/><g class="b"><path class="d" d="M0,0H44.776a0,0,0,0,1,0,0V19.612A22.388,22.388,0,0,1,22.388,42h0A22.388,22.388,0,0,1,0,19.612V0A0,0,0,0,1,0,0Z"/><path class="e" d="M3.6,3H41.176a.6.6,0,0,1,.6.6V19.612A19.388,19.388,0,0,1,22.388,39h0A19.388,19.388,0,0,1,3,19.612V3.6A.6.6,0,0,1,3.6,3Z"/></g><g class="b" transform="translate(38.806)"><path class="d" d="M0,0H44.776a0,0,0,0,1,0,0V19.612A22.388,22.388,0,0,1,22.388,42h0A22.388,22.388,0,0,1,0,19.612V0A0,0,0,0,1,0,0Z"/><path class="e" d="M3.6,3H41.176a.6.6,0,0,1,.6.6V19.612A19.388,19.388,0,0,1,22.388,39h0A19.388,19.388,0,0,1,3,19.612V3.6A.6.6,0,0,1,3.6,3Z"/></g><g class="b" transform="translate(76.617)"><path class="d" d="M0,0H44.776a0,0,0,0,1,0,0V19.612A22.388,22.388,0,0,1,22.388,42h0A22.388,22.388,0,0,1,0,19.612V0A0,0,0,0,1,0,0Z"/><path class="e" d="M3.6,3H41.176a.6.6,0,0,1,.6.6V19.612A19.388,19.388,0,0,1,22.388,39h0A19.388,19.388,0,0,1,3,19.612V3.6A.6.6,0,0,1,3.6,3Z"/></g><g class="b" transform="translate(116.418)"><path class="d" d="M0,0H44.776a0,0,0,0,1,0,0V19.612A22.388,22.388,0,0,1,22.388,42h0A22.388,22.388,0,0,1,0,19.612V0A0,0,0,0,1,0,0Z"/><path class="e" d="M3.6,3H41.176a.6.6,0,0,1,.6.6V19.612A19.388,19.388,0,0,1,22.388,39h0A19.388,19.388,0,0,1,3,19.612V3.6A.6.6,0,0,1,3.6,3Z"/></g><g class="b" transform="translate(155.224)"><path class="d" d="M0,0H44.776a0,0,0,0,1,0,0V19.612A22.388,22.388,0,0,1,22.388,42h0A22.388,22.388,0,0,1,0,19.612V0A0,0,0,0,1,0,0Z"/><path class="e" d="M3.6,3H41.176a.6.6,0,0,1,.6.6V19.612A19.388,19.388,0,0,1,22.388,39h0A19.388,19.388,0,0,1,3,19.612V3.6A.6.6,0,0,1,3.6,3Z"/></g><g transform="translate(103.152 123.432) rotate(-45)"><rect class="c" width="70" height="6" transform="translate(0 16)"/><rect class="c" width="11" height="6" transform="translate(9)"/><rect class="c" width="21" height="6" transform="translate(30)"/></g></svg>