<?xml version="1.0" encoding="UTF-8"?>
<svg width="76px" height="53px" viewBox="0 0 76 53" version="1.1" xmlns="http://www.w3.org/2000/svg" xmlns:xlink="http://www.w3.org/1999/xlink">
    <!-- Generator: Sketch 55.2 (78181) - https://sketchapp.com -->
    <title>testimonial-icon</title>
    <desc>Created with Sketch.</desc>
    <g id="Page-1" stroke="none" stroke-width="1" fill="none" fill-rule="evenodd">
        <g id="W1-landing-screen" transform="translate(-410.000000, -3468.000000)" fill="#D4E8FF">
            <g id="SuccessStories-Copy" transform="translate(186.000000, 3315.000000)">
                <g id="Group" transform="translate(4.000000, 153.000000)">
                    <g id="testimonial-icon" transform="translate(220.000000, 0.000000)">
                        <path d="M8,0 L25,0 C29.418278,-8.11624501e-16 33,3.581722 33,8 L33,25.0000048 C32.9999952,29.4182802 29.4182753,33 25,33 C14.4492673,33 10.1014483,33 11.956543,33 C11.956543,41.4407552 15.5504557,46.6271159 22.7382812,48.559082 C22.7382812,49.0734049 22.7382812,50.555013 22.7382812,53.0039063 C9.09910573,53.0039063 1.5368717,46.4954848 0.0515791418,33.4786418 C0.0172201241,33.1775435 3.71132128e-17,32.8747359 0,32.5716835 L0,8 C-5.41083001e-16,3.581722 3.581722,8.11624501e-16 8,0 Z" id="Rectangle" transform="translate(16.500000, 26.501953) scale(-1, 1) translate(-16.500000, -26.501953) "></path>
                        <path d="M51,-2.84217094e-13 L68,-2.84217094e-13 C72.418278,-2.85028719e-13 76,3.581722 76,8 L76,25.0000048 C75.9999952,29.4182802 72.4182753,33 68,33 C57.4492673,33 53.1014483,33 54.956543,33 C54.956543,41.4407552 58.5504557,46.6271159 65.7382812,48.559082 C65.7382812,49.0734049 65.7382812,50.555013 65.7382812,53.0039063 C52.0991057,53.0039063 44.5368717,46.4954848 43.0515791,33.4786418 C43.0172201,33.1775435 43,32.8747359 43,32.5716835 L43,8 C43,3.581722 46.581722,-2.8340547e-13 51,-2.84217094e-13 Z" id="Rectangle" transform="translate(59.500000, 26.501953) scale(-1, 1) translate(-59.500000, -26.501953) "></path>
                    </g>
                </g>
            </g>
        </g>
    </g>
</svg>