<?xml version="1.0" encoding="UTF-8"?>
<svg width="200px" height="200px" viewBox="0 0 200 200" version="1.1" xmlns="http://www.w3.org/2000/svg" xmlns:xlink="http://www.w3.org/1999/xlink">
    <!-- Generator: Sketch 55.2 (78181) - https://sketchapp.com -->
    <title>pharmaceutical-icon</title>
    <desc>Created with Sketch.</desc>
    <g id="pharmaceutical-icon" stroke="none" stroke-width="1" fill="none" fill-rule="evenodd">
        <g id="pharma-icon" transform="translate(8.000000, 5.000000)">
            <path d="M101,57.8629741 C112.283167,63.6726194 120,75.4351282 120,89 L120,155 C120,174.329966 104.329966,190 85,190 L35,190 C15.6700338,190 2.36723813e-15,174.329966 0,155 L0,89 C-1.66121768e-15,75.4351282 7.71683348,63.6726194 19,57.8629741 L19,15 L101,15 L101,57.8629741 Z" id="Combined-Shape" stroke="#8F959D" stroke-width="6"></path>
            <rect id="Rectangle" stroke="#8F959D" stroke-width="6" x="0" y="88" width="120" height="68"></rect>
            <path d="M94,104 L178,104 L178,174 C178,182.836556 170.836556,190 162,190 L110,190 C101.163444,190 94,182.836556 94,174 L94,104 Z" id="Rectangle" stroke="#8F959D" stroke-width="6" fill="#FFFFFF"></path>
            <rect id="Rectangle" fill="#8F959D" x="97" y="120" width="36" height="6"></rect>
            <rect id="Rectangle-Copy-9" fill="#8F959D" x="97" y="134" width="25" height="6"></rect>
            <path d="M67,115 L78,115 L78,129 L67,129 L67,140 L53,140 L53,129 L42,129 L42,115 L53,115 L53,104 L67,104 L67,115 Z" id="Combined-Shape" stroke="#FFFFFF" stroke-width="6" fill="#8F959D"></path>
            <g id="Group-5" transform="translate(12.000000, 0.000000)">
                <path d="M19,0 L77,0 C87.4934102,-1.92760819e-15 96,8.50658975 96,19 L96,44 L0,44 L0,19 C-1.28507213e-15,8.50658975 8.50658975,5.48032187e-15 19,0 Z" id="Rectangle" stroke="#8F959D" stroke-width="6" fill="#FFFFFF"></path>
                <rect id="Rectangle" fill="#8F959D" x="16" y="14" width="6" height="16"></rect>
                <rect id="Rectangle" fill="#8F959D" x="31" y="14" width="6" height="16"></rect>
                <rect id="Rectangle" fill="#8F959D" x="45" y="14" width="6" height="16"></rect>
                <rect id="Rectangle" fill="#8F959D" x="60" y="14" width="6" height="16"></rect>
                <rect id="Rectangle" fill="#8F959D" x="74" y="14" width="6" height="16"></rect>
            </g>
            <g id="Group-5-Copy" transform="translate(88.000000, 67.000000)">
                <path d="M19,0 L77,0 C87.4934102,-1.92760819e-15 96,8.50658975 96,19 L96,44 L0,44 L0,19 C-1.28507213e-15,8.50658975 8.50658975,5.48032187e-15 19,0 Z" id="Rectangle" stroke="#8F959D" stroke-width="6" fill="#FFFFFF"></path>
                <rect id="Rectangle" fill="#8F959D" x="16" y="14" width="6" height="16"></rect>
                <rect id="Rectangle" fill="#8F959D" x="31" y="14" width="6" height="16"></rect>
                <rect id="Rectangle" fill="#8F959D" x="45" y="14" width="6" height="16"></rect>
                <rect id="Rectangle" fill="#8F959D" x="60" y="14" width="6" height="16"></rect>
                <rect id="Rectangle" fill="#8F959D" x="74" y="14" width="6" height="16"></rect>
            </g>
        </g>
    </g>
</svg>